<?xml version="1.0" standalone="no"?>
<!DOCTYPE svg PUBLIC "-//W3C//DTD SVG 20010904//EN"
 "http://www.w3.org/TR/2001/REC-SVG-20010904/DTD/svg10.dtd">
<svg version="1.0" xmlns="http://www.w3.org/2000/svg"
 width="398.000000pt" height="398.000000pt" viewBox="0 0 398.000000 398.000000"
 preserveAspectRatio="xMidYMid meet">
<metadata>
Created by potrace 1.14, written by Peter Selinger 2001-2017
</metadata>
<g transform="translate(0.000000,398.000000) scale(0.100000,-0.100000)"
fill="#000000" stroke="none">
<path d="M1947 2569 c-135 -27 -263 -80 -392 -162 -28 -18 -125 -116 -125
-127 0 -14 24 -12 37 1 21 21 9 -13 -20 -59 -60 -94 -100 -209 -113 -332 l-5
-45 21 25 c12 14 36 42 52 63 17 20 34 37 39 37 4 0 7 -16 6 -35 -1 -19 -5
-35 -8 -35 -8 0 -27 -97 -34 -175 -3 -32 -8 -61 -10 -64 -3 -2 -16 1 -28 8
-39 21 -112 3 -122 -30 -4 -10 -10 -19 -14 -19 -12 0 -29 -46 -40 -110 -28
-161 29 -365 114 -406 l33 -15 0 -117 c-1 -149 8 -220 39 -302 13 -36 27 -73
30 -82 3 -10 12 -18 19 -18 18 0 18 -10 0 -36 -20 -29 -36 -120 -23 -133 6 -6
8 -11 4 -11 -3 0 -2 -11 3 -25 9 -23 6 -25 -28 -34 -20 -5 -50 -12 -67 -14
-75 -12 -105 -20 -116 -33 -6 -8 -17 -14 -23 -14 -19 0 -59 -41 -49 -51 7 -7
207 -76 243 -84 8 -2 35 -9 60 -16 25 -7 47 -13 50 -14 31 -7 87 -19 95 -19 6
-1 28 -5 50 -9 141 -27 416 -37 580 -23 145 13 247 26 256 32 4 2 22 6 40 8
49 7 115 23 189 46 36 12 79 24 95 27 40 7 74 25 57 31 -6 2 -12 8 -12 14 0
14 -60 67 -90 79 -25 11 -159 40 -195 42 -28 3 -34 16 -23 49 14 40 2 117 -23
151 -11 16 -19 34 -16 40 2 7 4 15 3 18 0 3 4 12 11 20 6 8 26 41 43 74 46 84
47 85 99 85 39 0 55 7 103 43 108 81 172 186 204 337 14 68 -24 129 -86 137
-43 6 -53 28 -25 56 8 8 12 17 9 20 -3 3 2 19 11 36 8 17 13 31 9 31 -4 0 -2
6 3 13 11 13 39 125 49 192 11 79 11 215 -1 278 -10 51 -9 69 1 88 21 41 32
122 20 155 -18 48 -46 89 -76 109 -15 10 -37 35 -50 54 -12 20 -45 55 -74 77
-55 45 -180 114 -206 114 -9 0 -20 4 -26 8 -5 4 -25 13 -44 19 -32 11 -62 17
-194 42 -77 15 -222 10 -319 -10z"/>
</g>
</svg>
